<svg width="149" height="28" viewBox="0 0 149 28" fill="none" xmlns="http://www.w3.org/2000/svg">
<ellipse cx="14.0946" cy="14" rx="14.0946" ry="14" fill="white"/>
<path d="M14.0947 0.5C21.6059 0.500071 27.6895 6.54737 27.6895 14C27.6895 21.4526 21.6059 27.4999 14.0947 27.5C6.58346 27.5 0.5 21.4527 0.5 14C0.5 6.54732 6.58346 0.5 14.0947 0.5Z" stroke="black" stroke-opacity="0.2"/>
<path d="M20.3437 10.9831C19.9218 11.1693 19.4765 11.2857 19.0078 11.3556C19.4765 11.0762 19.8515 10.6339 20.0156 10.0985C19.5703 10.3546 19.0781 10.5408 18.5391 10.6572C18.1172 10.2149 17.5079 9.93555 16.8517 9.93555C15.5861 9.93555 14.5549 10.9598 14.5549 12.2169C14.5549 12.4031 14.5783 12.5661 14.6252 12.729C12.7269 12.6359 11.016 11.728 9.86764 10.3313C9.68015 10.6805 9.56296 11.0529 9.56296 11.472C9.56296 12.2634 9.96138 12.9618 10.5942 13.3808C10.2192 13.3576 9.86764 13.2644 9.53953 13.1015V13.1248C9.53953 14.2422 10.3364 15.1733 11.391 15.3828C11.2035 15.4294 10.9926 15.4527 10.7817 15.4527C10.641 15.4527 10.477 15.4294 10.3364 15.4061C10.641 16.314 11.4847 16.9891 12.4925 16.9891C11.6957 17.5943 10.7113 17.9668 9.63327 17.9668C9.44578 17.9668 9.25829 17.9668 9.09424 17.9435C10.1254 18.5953 11.3207 18.9678 12.6331 18.9678C16.8751 18.9678 19.1953 15.476 19.1953 12.4497C19.1953 12.3566 19.1953 12.2402 19.1953 12.1471C19.6406 11.8444 20.039 11.4487 20.3437 10.9831Z" fill="black"/>
<ellipse cx="54.3649" cy="14" rx="14.0946" ry="14" fill="black"/>
<path d="M53.0649 20.3038V14.7503H51.1834V12.5859H53.0649V10.9898C53.0649 9.13752 54.2038 8.12891 55.8674 8.12891C56.6642 8.12891 57.3491 8.18784 57.5487 8.21417V10.1499L56.3949 10.1505C55.4902 10.1505 55.315 10.5775 55.315 11.2041V12.5859H57.4727L57.1917 14.7503H55.315V20.3038H53.0649Z" fill="white"/>
<ellipse cx="94.6351" cy="14" rx="14.0946" ry="14" fill="white"/>
<path d="M94.6353 0.5C102.146 0.500071 108.23 6.54737 108.23 14C108.23 21.4526 102.146 27.4999 94.6353 27.5C87.124 27.5 81.0405 21.4527 81.0405 14C81.0405 6.54732 87.124 0.5 94.6353 0.5Z" stroke="black" stroke-opacity="0.2"/>
<path d="M94.6359 8.44721C96.4568 8.44721 96.6725 8.45398 97.3918 8.48656C97.8243 8.49182 98.2527 8.5707 98.6584 8.71979C98.9526 8.83248 99.2197 9.00511 99.4427 9.22656C99.6656 9.44802 99.8394 9.71339 99.9529 10.0056C100.103 10.4085 100.182 10.8341 100.188 11.2637C100.22 11.9782 100.227 12.1924 100.227 14.0011C100.227 15.8098 100.22 16.024 100.188 16.7385C100.182 17.1681 100.103 17.5936 99.9529 17.9966C99.8394 18.2888 99.6656 18.5541 99.4427 18.7756C99.2197 18.997 98.9526 19.1697 98.6584 19.2824C98.2527 19.4315 97.8243 19.5103 97.3918 19.5156C96.6728 19.5479 96.4572 19.5549 94.6359 19.5549C92.8146 19.5549 92.599 19.5482 91.88 19.5156C91.4475 19.5103 91.0191 19.4315 90.6134 19.2824C90.3192 19.1697 90.0521 18.997 89.8291 18.7756C89.6062 18.5541 89.4324 18.2888 89.3189 17.9966C89.1688 17.5936 89.0894 17.1681 89.0841 16.7385C89.0516 16.024 89.0445 15.8098 89.0445 14.0011C89.0445 12.1924 89.0513 11.9782 89.0841 11.2637C89.0894 10.8341 89.1688 10.4085 89.3189 10.0056C89.4324 9.71339 89.6062 9.44802 89.8291 9.22656C90.0521 9.00511 90.3192 8.83248 90.6134 8.71979C91.0191 8.5707 91.4475 8.49182 91.88 8.48656C92.5993 8.4543 92.815 8.44721 94.6359 8.44721V8.44721ZM94.6359 7.22656C92.7848 7.22656 92.5516 7.2343 91.8241 7.26721C91.2581 7.27839 90.698 7.38485 90.1678 7.58205C89.713 7.75226 89.3011 8.019 88.9607 8.36366C88.6134 8.70184 88.3446 9.11127 88.1732 9.56334C87.9746 10.09 87.8675 10.6463 87.8562 11.2085C87.8237 11.9304 87.8159 12.162 87.8159 14.0008C87.8159 15.8395 87.8237 16.0711 87.8569 16.7937C87.8681 17.3559 87.9753 17.9122 88.1738 18.4388C88.3451 18.8908 88.6136 19.3002 88.9607 19.6385C89.3012 19.9832 89.7134 20.25 90.1685 20.4201C90.6987 20.6173 91.2587 20.7238 91.8248 20.7349C92.5522 20.7672 92.7844 20.7756 94.6365 20.7756C96.4887 20.7756 96.7209 20.7679 97.4483 20.7349C98.0144 20.7238 98.5744 20.6173 99.1046 20.4201C99.5575 20.2457 99.9688 19.9794 100.312 19.6381C100.655 19.2968 100.923 18.8881 101.099 18.4382C101.297 17.9115 101.404 17.3553 101.416 16.793C101.448 16.0711 101.456 15.8395 101.456 14.0008C101.456 12.162 101.448 11.9304 101.415 11.2079C101.404 10.6456 101.297 10.0893 101.098 9.56269C100.927 9.11068 100.658 8.70126 100.311 8.36301C99.9705 8.01828 99.5584 7.75153 99.1033 7.5814C98.5731 7.3842 98.0131 7.27775 97.447 7.26656C96.7202 7.2343 96.487 7.22656 94.6359 7.22656Z" fill="black"/>
<path d="M94.6373 10.5234C93.9446 10.5234 93.2675 10.7275 92.6916 11.1097C92.1156 11.492 91.6668 12.0353 91.4017 12.6709C91.1366 13.3066 91.0672 14.006 91.2024 14.6808C91.3375 15.3556 91.6711 15.9755 92.1609 16.462C92.6507 16.9485 93.2747 17.2798 93.9541 17.414C94.6334 17.5482 95.3376 17.4794 95.9775 17.2161C96.6175 16.9528 97.1645 16.5069 97.5493 15.9348C97.9341 15.3627 98.1395 14.6902 98.1395 14.0021C98.1395 13.0795 97.7705 12.1947 97.1137 11.5423C96.4569 10.8899 95.5661 10.5234 94.6373 10.5234ZM94.6373 16.2602C94.1877 16.2602 93.7482 16.1278 93.3743 15.8797C93.0005 15.6315 92.7091 15.2789 92.537 14.8663C92.365 14.4537 92.3199 13.9996 92.4077 13.5616C92.4954 13.1236 92.7119 12.7213 93.0298 12.4055C93.3478 12.0897 93.7528 11.8746 94.1938 11.7875C94.6348 11.7003 95.0919 11.7451 95.5073 11.916C95.9227 12.0869 96.2777 12.3763 96.5275 12.7476C96.7773 13.119 96.9106 13.5555 96.9106 14.0021C96.9106 14.601 96.6711 15.1754 96.2448 15.5988C95.8185 16.0223 95.2402 16.2602 94.6373 16.2602V16.2602Z" fill="black"/>
<path d="M98.2772 11.1981C98.7292 11.1981 99.0956 10.8341 99.0956 10.3852C99.0956 9.93621 98.7292 9.57227 98.2772 9.57227C97.8252 9.57227 97.4588 9.93621 97.4588 10.3852C97.4588 10.8341 97.8252 11.1981 98.2772 11.1981Z" fill="black"/>
<ellipse cx="134.905" cy="14" rx="14.0946" ry="14" fill="white"/>
<path d="M134.906 0.5C142.417 0.500071 148.5 6.54737 148.5 14C148.5 21.4526 142.417 27.4999 134.906 27.5C127.394 27.5 121.311 21.4527 121.311 14C121.311 6.54732 127.394 0.5 134.906 0.5Z" stroke="black" stroke-opacity="0.2"/>
<path fill-rule="evenodd" clip-rule="evenodd" d="M135.516 7.22656C131.901 7.22656 128.993 10.1155 128.993 13.7065C128.993 16.5684 130.868 18.9984 133.451 19.8624C133.777 19.9164 133.885 19.7274 133.885 19.5384C133.885 19.3764 133.885 18.9714 133.885 18.4314C132.064 18.8364 131.684 17.5674 131.684 17.5674C131.385 16.8114 130.95 16.6224 130.95 16.6224C130.352 16.2174 131.004 16.2174 131.004 16.2174C131.657 16.2714 132.01 16.8924 132.01 16.8924C132.581 17.8914 133.532 17.5944 133.913 17.4324C133.967 17.0004 134.13 16.7304 134.32 16.5684C132.88 16.4064 131.358 15.8394 131.358 13.3555C131.358 12.6535 131.602 12.0595 132.037 11.6275C131.983 11.4655 131.738 10.8175 132.091 9.89952C132.091 9.89952 132.635 9.73752 133.885 10.5745C134.402 10.4395 134.973 10.3585 135.516 10.3585C136.06 10.3585 136.631 10.4395 137.147 10.5745C138.398 9.73752 138.941 9.89952 138.941 9.89952C139.295 10.7905 139.077 11.4385 138.996 11.6275C139.403 12.0865 139.675 12.6535 139.675 13.3555C139.675 15.8394 138.153 16.3794 136.685 16.5414C136.93 16.7304 137.12 17.1354 137.12 17.7294C137.12 18.5934 137.12 19.2954 137.12 19.5114C137.12 19.6734 137.229 19.8894 137.582 19.8354C140.164 18.9984 142.04 16.5684 142.04 13.7065C142.04 10.1155 139.132 7.22656 135.516 7.22656Z" fill="black"/>
</svg>
